/* XPM */
static char *_745_365e90e85cc2a501bc253dac1fde1f592ea6c376af1953f81a8551f5858fb621[] = {
/* columns rows colors chars-per-pixel */
"64 64 241 2 ",
"   c #060B06",
".  c #090C06",
"X  c #07060B",
"o  c #09070D",
"O  c #060C0A",
"+  c #0B0D0B",
"@  c #060703",
"#  c #0B1204",
"$  c #06130D",
"%  c #0C120D",
"&  c #0B190D",
"*  c #121503",
"=  c #131904",
"-  c #1C1C06",
";  c #12150C",
":  c #151A0B",
">  c #1C1C0C",
",  c #181705",
"<  c #0D0C12",
"1  c #0A0B13",
"2  c #100C15",
"3  c #120F18",
"4  c #0D1412",
"5  c #0E1914",
"6  c #0A1714",
"7  c #111514",
"8  c #121A15",
"9  c #1B1E13",
"0  c #14141D",
"q  c #141C1A",
"w  c #1A1D1D",
"e  c #18171E",
"r  c #100F0D",
"t  c #211F0B",
"y  c #211D04",
"u  c #211F15",
"i  c #1E220C",
"p  c #1C2107",
"a  c #1D2214",
"s  c #16211D",
"d  c #1B231D",
"f  c #1C291E",
"g  c #172116",
"h  c #0D2116",
"j  c #23230D",
"k  c #2A260D",
"l  c #222414",
"z  c #292612",
"x  c #252A14",
"c  c #2B2C14",
"v  c #23261B",
"b  c #232A1D",
"n  c #2B2C1B",
"m  c #322E14",
"M  c #302F1A",
"N  c #2C321A",
"B  c #2D3116",
"V  c #343315",
"C  c #383316",
"Z  c #3B3C14",
"A  c #33341C",
"S  c #3A361A",
"D  c #353A1C",
"F  c #3C3C1C",
"G  c #363813",
"H  c #302B0E",
"J  c #161522",
"K  c #181724",
"L  c #161A23",
"P  c #1A1B23",
"I  c #191A2A",
"U  c #18172B",
"Y  c #1B2422",
"T  c #1D2A24",
"R  c #1E2B29",
"E  c #192324",
"W  c #1E3229",
"Q  c #232522",
"!  c #222C23",
"~  c #2B2D23",
"^  c #222D2B",
"/  c #252A2C",
"(  c #243125",
")  c #2C3223",
"_  c #25312D",
"`  c #2B342C",
"'  c #2A392D",
"]  c #283927",
"[  c #333523",
"{  c #353A24",
"}  c #3B3C23",
"|  c #343A2A",
" . c #3A3C2A",
".. c #363626",
"X. c #273230",
"o. c #2A3432",
"O. c #283B31",
"+. c #323A35",
"@. c #353C38",
"#. c #262930",
"$. c #413D1E",
"%. c #413E22",
"&. c #3E411A",
"*. c #3C4223",
"=. c #3D432C",
"-. c #3D433D",
";. c #384838",
":. c #38523B",
">. c #43441D",
",. c #4C4C1D",
"<. c #474419",
"1. c #434424",
"2. c #4A4522",
"3. c #4C4B22",
"4. c #42432C",
"5. c #4C4C2C",
"6. c #464829",
"7. c #524D25",
"8. c #524D2A",
"9. c #4E5127",
"0. c #535224",
"q. c #53552B",
"w. c #5C5A2B",
"e. c #59572A",
"r. c #4C4D31",
"t. c #444B35",
"y. c #43523C",
"u. c #4B5337",
"i. c #565A34",
"p. c #585738",
"a. c #504C31",
"s. c #615E2D",
"d. c #635D32",
"f. c #635E3E",
"g. c #5F6233",
"h. c #5B623C",
"j. c #646332",
"k. c #6A6739",
"l. c #726A3C",
"z. c #70703E",
"x. c #383543",
"c. c #3E4443",
"v. c #3A4D43",
"b. c #384845",
"n. c #355545",
"m. c #3C5344",
"M. c #3C5C4B",
"N. c #395748",
"B. c #434A44",
"V. c #444A4C",
"C. c #454948",
"Z. c #4C534C",
"A. c #44594A",
"S. c #535944",
"D. c #484B54",
"F. c #495554",
"G. c #525856",
"H. c #625E43",
"J. c #566345",
"K. c #446353",
"L. c #4B6658",
"P. c #55685B",
"I. c #6E6A4B",
"U. c #676345",
"Y. c #716B4A",
"T. c #6A724A",
"R. c #7A7547",
"E. c #7B7555",
"W. c #767757",
"Q. c #6C6E53",
"!. c #535B64",
"~. c #5A6668",
"^. c #5B6E6A",
"/. c #616C6E",
"(. c #757C65",
"). c #616B72",
"_. c #647273",
"`. c #687676",
"'. c #6C797A",
"]. c #85784E",
"[. c #847E5C",
"{. c #877A56",
"}. c #8D7553",
"|. c #847F61",
" X c #7C8459",
".X c #7D8669",
"XX c #84814E",
"oX c #84815E",
"OX c #898657",
"+X c #91885E",
"@X c #8B915E",
"#X c #92925E",
"$X c #848264",
"%X c #8A8463",
"&X c #8B8869",
"*X c #928B66",
"=X c #928C6B",
"-X c #998665",
";X c #8B9465",
":X c #999668",
">X c #9B9573",
",X c #999677",
"<X c #918F71",
"1X c #A38D69",
"2X c #A29B76",
"3X c #A39C7A",
"4X c #A79775",
"5X c #B19D79",
"6X c #A5936F",
"7X c #A5A17D",
"8X c #ACA979",
"9X c #AAA67B",
"0X c #B1AA7D",
"qX c #9AA376",
"wX c #979D83",
"eX c #A29D80",
"rX c #9CA185",
"tX c #ABA582",
"yX c #ADAA85",
"uX c #AAA888",
"iX c #B3AC8B",
"pX c #BAAD8B",
"aX c #B4A884",
"sX c #ABB486",
"dX c #B6B18E",
"fX c #BBB28B",
"gX c #B7B98A",
"hX c #ADB398",
"jX c #BCB593",
"kX c #B7BA96",
"lX c #B4AF91",
"zX c #C1BE8F",
"xX c #C4B995",
"cX c #C3B995",
"vX c #BFC2A3",
"bX c #C4C29B",
"nX c #C7C69C",
"mX c #D0C09C",
"MX c #CACBA4",
"NX c #C6C8A5",
"BX c #D0D2AA",
/* pixels */
"e 7 1 4 w ^ ` o.' ' _ ` o.X.E 0 0 0 0 0 h L L 5 s s s f T f f W f W ( ] R ( ( ( ( f ( ( ( f f f f b b f f f ! T b d f f f f f f ",
"0 7 7 < 4 w Y ^ ` ` o.o.X.^ E 0 0 0 0 0 6 L q q s s s f f f f T T W T W ( ( ] ( b ( f b f b f W N f b f f b f f T f f f f d f f ",
"0 2 2 < + + 7 9 Y Q ^ Y E E q 0 0 0 J 0 L 6 0 h q q s s Y d f Y T T R T ! ( ^ ( b ( b b ( f ( N ( v f g g g d ! f T f T f T f f ",
"< 2 < < 2 + + + % 7 4 4 6 0 6 0 0 J 0 0 0 0 0 0 q q Y T T ! ^ ^ W ] ' ' ' ' ' ( ] ( ( b N b ( x a g p = ; ; 9 f ` ) ~ ^ ! ! ^ ! ",
"2 2 2 o 2 < o . X + X o 1 0 0 e J 0 0 0 0 3 0 J L q E R R R ^ ^ ^ ! ( _ ` ` ` ) ( b x b v v a 9 : : , > : : 9 v ` ^ Q Q Y Q Y Y ",
"2 2 2 2 < o r o + o X o 4 0 0 J 0 J J 0 3 0 J 3 6 0 0 L E L E s g f v b b b b l v a a l a i : , - p i j > > 9 u b l 9 7 7 4 4 + ",
"2 2 2 2 o o r r + < o o 2 e e J J 0 J J J J J 3 J 0 J L L L L L d l f l v v a l a > > i i : t t k k B c c l l t z u 9 ; + O O o ",
"2 2 1 o 2 o o r o o o 2 e K J J J 3 J J J J J J J J J 0 J e P d d v v v l a l a l > > - - - u z F 1.5.r.a.5.} M l l > ; r . O O ",
"2 2 < < r o o < o o 1 < J J K K J J J 3 K J J 3 0 e J P P K P Q b v l v v l l t t t t - t t %.a.h.I.Y.I.I.I.U.r.M t u u r @ . . ",
"2 < < < < < < o r 2 < 3 J K K K K K J J J J J J J K e K w u Q Q v z z c z u t t l t y y t S a.Y.oX=X*X*X$X[.W.U.6.M n l * X @ @ ",
"1 1 < < < o < < 2 2 0 e K J U I U K J J J J J 3 e e P u u ~ ~ ~ v n n c z k t k y y y m %.p.E.&X>X7X>X:X>X*XoXY.p.S M v u : : r ",
"1 2 < + 2 + r + + < 0 e J K K I J U 3 J J J J J e e P u v ~ [ A A A M z z z z k k k k S a.E.=X3X2X7X2X2X>X>X*XoXH.%.M n v v v 9 ",
"1 1 2 1 < o < o X o < e J L L U J J 0 J J J J K e e u ~ [ [ A [ S A m k z m H k H m $.%.U.}.4X9X9XyX9XtXtX3X>X&XE.6.M M M ~ v 9 ",
"1 1 < 1 o < o o o o 0 J P K J L J K J J J J e u u Q ~ [ } D D D C m c c m m m H C $.p.E.%X-X>X2XiXiXiXtXuX5X2X>X&Xa.M D  .[ 9 7 ",
"< < < < o r o + < 7 0 J U L U U K K J K K e e P Q / [ ..} D F C m c m C C m C S %.8.Y.=X5X2X4X7XjXkXjXiXiXtXeX3X%Xp..... .~ 9 8 ",
"< < o < o < < o 0 J K K L J J J J J K K J e P Q ~ .. .%.} F Z G m m S S S C $.<.2.8.f.}.,XtXpXfXjXcXjXjXpXtXtX>X[.S.%. . .~ 9 9 ",
"o < < o o o o < 3 K U J K P K K J K J K u u Q [ [ D D %.%.F F S $.$.$.$.$.$.2.7.d.d.U.E.=X3XaXzXcXbXcXjXlXaXeX>XE.4.%.%./ u 7 0 ",
"o < < < + < o o o e K J K K K K U K J K P Q [ } } F %.$.$.$.$.F $.$.$.%.7.s.d.l.E.E.E.E.[.-X6X2XaXdXgXiX3X>X>X<XU.6.%.[ u 3 r 2 ",
"2 + 2 + + + o X 1 J I K U K U K K K P Q Q [ ..} } &.<.&.&.1.>.$.$.$.7.8.d.l.R.+X%X*X*X[.{.{.OX%X*X,XtXiXeX>X|.Y.a.%.%.A , . @ + ",
"< o o + o o o X 2 L I I I U U U K P Q Q [ ..} } >.>.Z &.>.2.2.1.$.7.d.d.l.].#X2X2X2X,X=X[.E.{.oXoX[.|.<XeXtX=XI.2.%.} z , * * ; ",
"< < < < . . . o 0 e K I I I U U P d v ~ .. .6.1.&.Z &.<.,.,.,.0.d.d.l.l.XX:X5X0XaXyX2X%X[.E.{.[.E.Y.f.H.|.4X|.H.$.%.$.z y , > > ",
"< r o + X X + r e K I I I U U P 9 a n | %.t.6.>.Z Z <.<.0.,.0.s.l.l.l.}.1X0XfXfXiXaX3X-X}.-X=X%X$X$X(.E.E.Q.f.%.S %.m y t t u u ",
"o 2 + + O X o 2 P P I R U U I Y v N *.6.r.6.>.&.<.<.,.e.0.0.s.j.l.R.}.:X8X0XxXpXeX4X>X6X4XpXxX5X<X,X,X$XU.5.%.C S $.m t t u t , ",
"r o + + o o + 2 P I #.#.I E Y b { *.9.u.9.,.<.Z <.,.e.w.w.w.s.z.R.XX#X0XpXxXaXaXaX1X-X5XaXaXxXaX5XuXeX&XH.m m C C S H y z u u , ",
"o + o o o o < e L P Q Q d v ~  .6.q.p.q.,.&.,.,.,.s.s.s.w.w.j.z.XX:X8XzXnXmX0X0X4X6X6X5X5X5X5XxXiXiXuX$X1.m G S %.M t t t u , r ",
"o + X X o o < P P P Y Q b { =.u.i.i.q.q.,.,.,.0.s.j.j.w.s.s.z.XXOX8XnXnXnX0X6XOX}.1X1X1X1X1X5XxXlXlX,XU.S S F } ..M l 9 ; , , u ",
". + . @ O o 2 P P Q v [ *.r.i.h.j.e.7.7.,.,.0.g.j.z.j.w.s.j.XXXX:XgXnXnXMXnXzX1X}.}.}.}.}.4XaXxXpX>XI.2.C F *.} [ b l 9 9 ; u ` ",
"o . X . + + 7 v v ~  .4.u.i.i.e.q.0.,.7.0.w.g.k.j.s.w.s.j.XXXX#X8XzXnXMXMXnXMXmXxX5X}.}.-X5XpXlX,XU.1.*.&.1.6.=.{ ~ v d v d Q ` ",
"+ O $ % ; ; a b ..%.r.p.i.q.q.0.,.3.9.q.w.g.k.k.j.w.w.z. X@X#XqX8XgXnXMXMXcXbXbXxXcXxX5X2XiXiX<XJ.2.} 6.6.u.u.t.;.+.O.O.o.O.O.' ",
"+ + 7 q l x [ =.t.u.5.5.6.2.,.,.0.q.q.g.g.g.g.g.j.k.XX@X@X@X#XsXsXgXzXnXMXMXBXbXxXxXxXxXjXhX$Xu.} D =.r.J.h.y.y.;.:.v.b.v.m.v.v.",
"1 4 s ~ ) {  .1.4.1.>.>.>.>.7.7.q.q.q.q.w.q.g.g.z. X@X@X@X#X8XgXgXzXsXkXvXMXBXBXMXjXjXkX,XQ.:.D *.*.r.J.T.L.y.:.;.v.m.m.m.M.N.M.",
"$ ; b |  .{ D F S C G F >.3.7.q.9.&.&.,.9.q.h.T. X@X@X X#XsXsXsXsXgXkXkXsXtXjXNXcXdXyX<Xp.{ N ] ] =.y.J.J.u.:.;.:.n.n.n.N.N.M.M.",
"> n  .{ N c c B B S D &.1.&.&.&.&.*.&.*.&.&.*.i. X X X XqXsXsXsXsXsXkXkX.Xh. XtXyX9XtX&XU.*.n n [  .;.y.y.:.:.:.n.N.n.N.M.M.M.M.",
"{ { [ N x c B A A A A D A D A B N N a i p p i D :.h.h. X.XqX.X X X.X;X.Xu.*.W.<XhXkXkXiX,X.XU.u.=.=.t.y.m.m.m.N.N.N.N.M.M.M.K.K.",
" .B c x n c c b b x j i i p - - = = * = = g N =.*.*.B x N *.*.D *.*.N D x A Q.&XrXkXvXvXNXhX,XW.S.=.) ' ;.m.M.K.M.K.K.K.K.K.K.K.",
"A B N N N x l a - - = * * * * * = = a b { { | { x & # # # = = = & & & & = l y.(.<XhXvXNXNXhXwXP.=.b & ; Y ;.m.M.K.K.K.L.L.K.L.L.",
"D B B c x i > i a a a a l v v b ! b ) ) ) b g * & # & = ; ; ; ; % % & 7 $ # a { J.(.rXhXhXrX.Xy.f 8 % & & g f O.b.M.L.L.L.L.L. X",
"N x x i j j a x b n ~ ! Q b ! b f a a : ; % ; % & & + & 4 < 4 4 5 $ $ $ % $ # # ; ) S.(..X(.P.| g g q h 6 & & 6 h W n.K.L.^.^.L.",
"N c x x x b b v f a g 9 8 8 4 & $ # % # . # % % % + $ 4 6 4 4 4 $ $ 6 4 O   % % # # p ) G.P.;.a s s 8 5 8 5 5 5 6 $ 6 h O.n.K.L.",
") N b v a 9 : : 8 8 7 4 4 % $ # %   . % . . % $ < 4 + + + $ 1 4 7 + + 4 4 4 ; % & # # % ..-.( d g s s 8 5 s 8 5 6 6 & h h h W O.",
"b b g : ; % ; % 7 8 8 6 7 4 ; $ % # % + +   $ +   O $ $ + $ O + $ % % 4 4 < % % ; # . % ; 8 8 4 q q s L q q q q q q q 5 6 & & & ",
"9 q 8 ; % ; ; % 8 8 9 8 5 8 ; & 7 % % $ $ + O . + $ . . O + $ # + % % + % ; % % % % + # $ + + O 4 6 5 q E w w w q q 5 5 5 6 h & ",
"8 : 7 7 7 4 & 1 4 6 8 q 8 : 5 8 4 5 5 4 % % & $ #     .         . . . ; r + + % + ; % . + O O + 1 $ 4 4 q L g w q q q 5 q q & 6 ",
"8 7 7 7 7 4 4 % $ $ 5 8 q 8 8 h q q q 8 8 8 7 ; % % % . # # $ # # . . . + % + + . . + ; $ 1 4 < 4 O O O 4 8 q w q q s q h h h 6 ",
"7 % % 4 4 7 7 0 4 $ + 4 8 8 8 q q s q q 8 8 8 8 7 7 % $ $ .   . . # . + + + + + ; % ; . r + < + + O     O $ 8 q s s s s q q q 5 ",
"7 % 4 $ $ % 4 4 4 4 + 4 6 8 q q 8 8 8 0 8 6 4 4 4 % 4 % % % $ $ % # $ + + $ $ + % . + + + ; ; + + + X     . $ % q q w s s q q q ",
"8 ; 5 % $ $ O O 4 1 + + 4 0 e q 5 5 7 6 6 6 6 4 6 6 7 8 8 8 q q ; 4 % % % 4 1 4 % + % # ; % + + r . . $ 5 8 4 & 5 8 q s E w w w ",
"% & % 8 7 4 4 4 O $ O O 4 8 q q q 5 6 0 6 7 6 q 0 6 q 7 0 0 3 4 7 4 7 4 4 % 4 + % % % % + % + ; ; + . 8 d ~ T s 5 5 q q w d L w ",
"5 4 % % $ % ; 7 % % + + $ ; 7 q 7 7 8 7 5 q q 8 6 4 4 + < + + + % % % % % % + % % % + ; 4 % % % + % ; % q ) +.@.^ w 8 8 P E w P ",
"% % + $ + % + % % % % . + $ % 7 4 4 7 7 6 6 7 6 7 7 4 4 + 4 $ + . + + . + + % % + + 4 % % ; 4 % ; 4 4 4 % d ' :.;.` d e w w w E ",
"% % % % % . + + + ; + +     + % 4 4 7 7 7 q 6 7 4 4 4 + $ + 4 + $ + + $ $ + $ + % % % 4 4 % 4 % 4 4 4 7 % 8 ` V.t.+.^ v s w e w ",
"% % % % % + r + + + + . @   + % 4 4 7 7 7 6 4 $ + $ + 4 < 4 + + % % % + % % + $ % 4 % 4 % % 4 & 4 4 5 q 8 w ` C.x.@.| o.^ Q s q ",
"+ + + % + + r ; . r r . O . + + $ 4 + 4 O 4 $ $ 4 4 4 6 7 7 4 < % % $ + + % $ + % 4 & 4 & $ 4 4 5 8 h s s f ..t.B.B.B.y.@.` ! Y ",
"7 4 % + % + + . + r @ X O O + r < + 4 4 6 4 6 4 6 6 7 8 7 7 7 4 % ; % 7 7 % ; 4 4 & 4 4 5 6 8 q E T Y Y f / @.C.Z.Z.Z.Z.Z.c.@.+.",
"8 7 ; 7 ; + . o + r @ r . X + ; 7 7 6 7 7 q q q 6 6 8 5 7 7 7 7 7 7 7 7 6 6 6 5 5 5 5 q q s Y R T R T R ^ ` t.C.Z.Z.Z.G.G.S.G.Z.",
". $ $ % r + ; r r . r r + . + r 7 7 7 7 q 7 5 8 7 8 0 8 q 8 q 8 8 8 8 q 8 q 8 5 s s s Y Y T R W R R E T / +.+.o.@.t.Z.G.G.G.L.G.",
"% + % + + + . r . r r r r r r r 7 7 7 7 7 8 5 5 q 5 q 5 8 q 8 q e s w s q w s s E Y T R ^ ! W T E ^ T _ V.b.c.V.C.%.c.Z.G.F.F.Z.",
"% % % + + * o . r . @ r @ r . r 7 7 7 0 8 8 q q q q s s q q q q s s s s s d E E Y R T T T R E T R W X.b.P.G.c.b.x.x.+.c.C.C.B.C.",
"% % + # + + . r r X . @ X @ @ . + % 7 0 q 8 w q s s s Y s Y d E E E E P Y T R ^ R ^ R R R R R R W X.b.~./.~.M.x.@.X.o.c.B.c.@.+.",
"% % + r r + r X X r r r r X . X O   + o 4 7 8 q s 5 s s s Y Y Y Y ^ ! R R R ^ ^ ^ ^ ^ ^ R ^ ^ ^ R R F./.`./.^.!.F.b.D.G.V.V.D.x.",
"+ % + + . + + r X + 9 w , 7 r r 7 r 2 7 6 6 8 8 q s f Y Y T T ! R ^ ^ ^ ^ X.^ ^ X.X.X.^ R R E E E W F.`._.'.'.'.~.).).!.D.D.G.!.",
"% % r % + + + r X r w Q u 3 7 7 7 7 9 8 w w w s s E E T ! ^ ^ ^ / ^ X.#.X.o.o.o.X._ ^ R R E E s L R F.`.`.`.'._.).).).).!.D.D.D.",
"% % + + . + + + . ; v Q w r 7 ; 7 7 8 8 8 P d E Y T W ! ^ ^ _ ^ X.X.X.X.X.X.X.X.R E E L q q q L L E F._.).^.).).).!.!.).!.!.C.x.",
"% + + ; . r + + + ; Q Q 8 7 7 9 0 9 e 8 w d Y Y T T T ^ ^ ^ _ X.X.o.o.o.X.X.^ R E s 6 6 6 6 q E E #.M.^.~.F.F.).).D.x.D.D.x.x.x."
};
